<svg width="14" height="14" viewBox="0 0 14 14" fill="none" xmlns="http://www.w3.org/2000/svg">
<g id="fluent:arrow-up-12-filled">
<path id="Vector" d="M1.2091 6.35516C1.2091 6.58723 1.30129 6.80979 1.46539 6.97388C1.62948 7.13798 1.85204 7.23016 2.0841 7.23016L9.0141 7.23016L6.71577 9.5285C6.56121 9.69437 6.47707 9.91376 6.48107 10.1404C6.48507 10.3671 6.5769 10.5834 6.73721 10.7437C6.89753 10.904 7.11381 10.9959 7.34049 10.9999C7.56718 11.0039 7.78657 10.9197 7.95244 10.7652L11.7441 6.9735C11.908 6.80944 12 6.58704 12 6.35516C12 6.12329 11.908 5.90089 11.7441 5.73683L7.95244 1.94516C7.87233 1.8592 7.77573 1.79024 7.6684 1.74242C7.56107 1.6946 7.4452 1.66888 7.32771 1.66681C7.21023 1.66474 7.09353 1.68635 6.98457 1.73035C6.87562 1.77436 6.77665 1.83986 6.69356 1.92295C6.61047 2.00604 6.54497 2.10501 6.50096 2.21397C6.45695 2.32292 6.43534 2.43962 6.43741 2.55711C6.43949 2.67459 6.4652 2.79046 6.51303 2.89779C6.56085 3.00513 6.6298 3.10173 6.71577 3.18183L9.0141 5.48016L2.0841 5.48016C1.6011 5.48016 1.2091 5.87216 1.2091 6.35516Z" fill="#27789A"/>
</g>
</svg>
